# xmcd
#
# Track frame offsets:
#	150
#	18228
#	34549
#	51255
#	67389
#	82752
#	96955
#	115711
#	134528
#	152271
#	165696
#	181564
#	198878
#	214605
#	229877
#
# Disc length: 3353 seconds
#
# Revision: 2
# Processed by: cddbd v1.5.1PL2 Copyright (c) Steve Scherf et al.
# Submitted via: audiograbber 1.83.01
#
DISCID=b90d170f
DTITLE=A Flor De Piel - A Flor De Piel cd1
DYEAR=2006
DGENRE=
TTITLE0=Randy Van Warmer - Just when I need you most
TTITLE1=David Soul - Don't give up on us
TTITLE2=Mary McGregor - Torn between two lovers
TTITLE3=Gilbert O''Sullivan - Alone again (Naturally)
TTITLE4=Dollar - Love gotta hold on me
TTITLE5=Donne Warwick - What the world needs now is love
TTITLE6=The Korgis - Everybody's gotta lern sometimes
TTITLE7=Judy Collins - Send in the clowns
TTITLE8=Lobo - I'd love you to want me
TTITLE9=Sandie Shaw - Every time we say goodbye
TTITLE10=Bonnie Tyler - It's Heartache
TTITLE11=K.C. and The Sunshine Band - Please don't go
TTITLE12=Harold Melvin and The blue notes - If you don' know me by now
TTITLE13=Dr. Hook featuring Ray Sawyer - Sexy Eyes
TTITLE14=Billy Paul - Me and Mrs.Jones
EXTD=
EXTT0=
EXTT1=
EXTT2=
EXTT3=
EXTT4=
EXTT5=
EXTT6=
EXTT7=
EXTT8=
EXTT9=
EXTT10=
EXTT11=
EXTT12=
EXTT13=
EXTT14=
PLAYORDER=
